HIERARCHY
ROOT Hips
{
	OFFSET -13.091600 -28.302996 44.698402
	CHANNELS 6 Xposition Yposition Zposition Zrotation Xrotation Yrotation
	JOINT Chest
	{
		OFFSET -0.673000 0.623899 5.369202
		CHANNELS 6 Xposition Yposition Zposition Zrotation Xrotation Yrotation
		JOINT Chest2
		{
			OFFSET 0.000000 0.000000 4.415001
			CHANNELS 6 Xposition Yposition Zposition Zrotation Xrotation Yrotation
			JOINT Neck
			{
				OFFSET 0.000000 0.000002 10.273300
				CHANNELS 6 Xposition Yposition Zposition Zrotation Xrotation Yrotation
				JOINT Head
				{
					OFFSET 0.000000 0.000000 2.173897
					CHANNELS 6 Xposition Yposition Zposition Zrotation Xrotation Yrotation
					End Site
					{
						OFFSET 0.000000 0.000000 9.961800
					}
				}
			}
			JOINT LeftCollar
			{
				OFFSET 2.359900 -0.565201 5.928101
				CHANNELS 6 Xposition Yposition Zposition Zrotation Xrotation Yrotation
				JOINT LeftShoulder
				{
					OFFSET 5.443700 0.000000 0.000000
					CHANNELS 6 Xposition Yposition Zposition Zrotation Xrotation Yrotation
					JOINT LeftElbow
					{
						OFFSET 0.000000 0.000000 -10.615799
						CHANNELS 6 Xposition Yposition Zposition Zrotation Xrotation Yrotation
						JOINT LeftWrist
						{
							OFFSET 0.000000 -0.000002 -13.110302
							CHANNELS 6 Xposition Yposition Zposition Zrotation Xrotation Yrotation
							End Site
							{
								OFFSET 0.000000 0.000000 -2.173901
							}
						}
					}
				}
			}
			JOINT RightCollar
			{
				OFFSET -2.636600 -1.718800 6.889698
				CHANNELS 6 Xposition Yposition Zposition Zrotation Xrotation Yrotation
				JOINT RightShoulder
				{
					OFFSET -4.139101 0.000000 0.000000
					CHANNELS 6 Xposition Yposition Zposition Zrotation Xrotation Yrotation
					JOINT RightElbow
					{
						OFFSET 0.000000 0.000000 -10.471802
						CHANNELS 6 Xposition Yposition Zposition Zrotation Xrotation Yrotation
						JOINT RightWrist
						{
							OFFSET 0.000000 0.000000 -12.281898
							CHANNELS 6 Xposition Yposition Zposition Zrotation Xrotation Yrotation
							End Site
							{
								OFFSET 0.000000 -0.000002 -2.173901
							}
						}
					}
				}
			}
		}
	}
	JOINT LeftHip
	{
		OFFSET 2.273400 0.176701 -2.518002
		CHANNELS 6 Xposition Yposition Zposition Zrotation Xrotation Yrotation
		JOINT LeftKnee
		{
			OFFSET 0.000000 -0.000002 -20.456402
			CHANNELS 6 Xposition Yposition Zposition Zrotation Xrotation Yrotation
			JOINT LeftAnkle
			{
				OFFSET 0.000000 -0.000002 -16.635300
				CHANNELS 6 Xposition Yposition Zposition Zrotation Xrotation Yrotation
				End Site
				{
					OFFSET 0.000000 -8.812399 0.000001
				}
			}
		}
	}
	JOINT RightHip
	{
		OFFSET -1.914800 0.018101 -2.699299
		CHANNELS 6 Xposition Yposition Zposition Zrotation Xrotation Yrotation
		JOINT RightKnee
		{
			OFFSET 0.000000 -0.000002 -20.148901
			CHANNELS 6 Xposition Yposition Zposition Zrotation Xrotation Yrotation
			JOINT RightAnkle
			{
				OFFSET 0.000000 -0.000002 -16.838301
				CHANNELS 6 Xposition Yposition Zposition Zrotation Xrotation Yrotation
				End Site
				{
					OFFSET 0.000000 -8.328398 0.000001
				}
			}
		}
	}
}
MOTION
Frames: 9
Frame Time: 0.041667
-7.445399 15.007006 25.063208 2102.854162 -9.021636 6.692081 -0.672999 0.623898 5.369209 16.564105 17.884135 1.145909 0.000001 0.000001 4.415009 -4.033214 -3.778699 -0.503900 0.000002 0.000001 10.273302 55.952418 17.419730 -13.359514 0.000000 0.000003 2.173897 2.534326 0.816946 5.115223 2.359900 -0.565204 5.928098 9.489452 -2.506834 8.199109 5.443698 0.000000 0.000009 3.867091 3.345640 -50.766310 0.000005 0.000000 -10.615788 985.046604 -179.849536 178.738893 0.000001 -0.000005 -13.110296 -1450.331002 -2.985975 36.132384 -2.636602 -1.718804 6.889704 184.952411 -180.582306 187.354343 -4.139105 -0.000003 0.000003 389.573746 -376.976964 450.456549 0.000002 0.000004 -10.471798 -123.870439 -44.265804 -518.843354 0.000005 -0.000003 -12.281899 343.887648 -14.895563 -4.737074 2.273402 0.176701 -2.517993 -306.587576 -212.435549 -137.510136 -0.000002 -0.000003 -20.456392 170.383181 179.089541 -112.768438 -0.000007 -0.000005 -16.635298 60.844281 -5.354923 25.104842 -1.914795 0.018103 -2.699299 74.001452 206.657059 95.406480 0.000000 -0.000006 -20.148905 -4.121401 -188.536703 68.737111 -0.000001 -0.000001 -16.838301 325.594134 10.878919 -17.336104
-7.459098 15.003504 25.060596 2102.837333 -8.967286 6.686135 -0.673000 0.623898 5.369207 16.564489 17.829775 1.100703 0.000001 0.000003 4.415005 -4.032875 -3.756703 -0.501635 0.000001 0.000004 10.273298 55.943194 17.488295 -13.293694 -0.000001 -0.000001 2.173889 2.475810 0.715664 5.109980 2.359900 -0.565202 5.928096 9.491624 -2.536956 8.304431 5.443696 -0.000004 0.000001 4.057882 3.002707 -51.024143 0.000006 0.000001 -10.615792 984.923660 -180.075164 178.636699 0.000001 -0.000003 -13.110298 -1450.706607 -2.968636 36.025573 -2.636601 -1.718800 6.889689 184.898453 -180.517665 187.553033 -4.139096 -0.000001 0.000006 389.886295 -377.016771 450.776093 0.000004 0.000008 -10.471798 -123.875740 -44.302605 -518.700794 0.000000 -0.000004 -12.281892 343.840056 -14.923835 -4.799112 2.273400 0.176696 -2.517997 -306.528044 -212.419170 -137.516379 -0.000003 -0.000001 -20.456398 170.479172 178.714304 -112.812527 -0.000003 -0.000005 -16.635302 60.600498 -5.401422 25.098801 -1.914796 0.018102 -2.699299 74.013419 206.556600 95.302032 -0.000002 -0.000007 -20.148905 -3.974907 -188.543001 68.639132 0.000003 -0.000007 -16.838303 325.555421 10.827040 -17.278306
-7.472798 14.999212 25.056997 2102.813946 -8.911229 6.672778 -0.673001 0.623895 5.369210 16.496884 17.771408 1.096815 0.000001 0.000001 4.415002 -4.011758 -3.729989 -0.499279 0.000004 -0.000002 10.273302 55.948330 17.527631 -13.241512 -0.000001 -0.000001 2.173903 2.405670 0.597537 5.143451 2.359899 -0.565201 5.928098 9.535632 -2.620157 8.323082 5.443698 -0.000005 0.000005 4.252761 2.753879 -51.203644 0.000001 -0.000001 -10.615799 984.809022 -180.279250 178.543781 0.000001 -0.000004 -13.110291 -1451.017190 -2.944550 35.923452 -2.636600 -1.718803 6.889704 184.922618 -180.507816 187.758089 -4.139103 0.000001 -0.000002 389.929571 -377.121027 450.864885 0.000007 0.000004 -10.471804 -124.073446 -44.372187 -518.823574 -0.000001 0.000000 -12.281898 343.804402 -14.950914 -4.948521 2.273401 0.176702 -2.517998 -303.666877 -214.249565 -139.073949 -0.000004 -0.000004 -20.456396 167.525703 178.374447 -112.833482 -0.000005 -0.000003 -16.635300 60.517327 -5.454578 25.197936 -1.914797 0.018109 -2.699298 74.008829 206.459830 95.201574 0.000003 -0.000001 -20.148907 -3.860457 -188.484985 68.566268 -0.000004 -0.000002 -16.838299 325.467120 10.784705 -17.228071
-7.486499 14.994307 25.052401 2102.783347 -8.851199 6.653365 -0.673000 0.623893 5.369206 16.312816 17.700956 1.153918 0.000001 0.000001 4.415005 -3.942117 -3.692634 -0.495750 0.000005 0.000001 10.273294 55.990189 17.528989 -13.222127 -0.000001 -0.000004 2.173897 2.328467 0.471888 5.228605 2.359899 -0.565204 5.928100 9.628396 -2.766678 8.231301 5.443697 -0.000004 -0.000002 4.466618 2.615261 -51.276826 0.000003 -0.000001 -10.615791 984.681270 -180.442260 178.465986 0.000000 -0.000004 -13.110293 -1451.330504 -2.903916 35.811457 -2.636602 -1.718805 6.889692 185.044537 -180.599040 187.995889 -4.139107 0.000000 -0.000003 389.937603 -377.339456 450.949743 0.000000 0.000002 -10.471794 -124.266959 -44.466447 -518.928595 -0.000004 -0.000006 -12.281896 343.769240 -14.979254 -5.119100 2.273398 0.176697 -2.518003 -303.626251 -214.260507 -139.065903 -0.000001 -0.000005 -20.456398 167.456554 178.498374 -112.935750 -0.000005 -0.000006 -16.635300 60.640619 -5.505976 25.406948 -1.914799 0.018100 -2.699304 73.987956 206.375108 95.106587 0.000001 -0.000000 -20.148905 -3.796227 -188.347480 68.528941 -0.000001 -0.000007 -16.838303 325.320025 10.754321 -17.202847
-7.500700 14.988710 25.046101 2102.750125 -8.785403 6.628513 -0.673002 0.623896 5.369212 16.100950 17.623292 1.217704 -0.000001 0.000001 4.415004 -3.858349 -3.644127 -0.490553 0.000002 -0.000006 10.273301 55.975255 17.469759 -13.205520 -0.000001 -0.000005 2.173902 2.262602 0.393942 5.355308 2.359897 -0.565206 5.928101 9.684031 -2.895481 8.098924 5.443697 -0.000002 -0.000003 4.789865 2.361237 -51.306561 0.000003 -0.000001 -10.615793 984.469480 -180.600324 178.382616 -0.000000 -0.000006 -13.110301 -1451.675839 -2.868314 35.696949 -2.636604 -1.718807 6.889705 185.205019 -180.746545 188.302264 -4.139103 -0.000000 -0.000000 389.884219 -377.640749 450.997282 0.000003 0.000007 -10.471798 -124.283215 -44.508139 -518.908814 0.000006 -0.000004 -12.281893 343.856694 -14.994367 -5.312245 2.273400 0.176699 -2.517998 -306.383435 -212.461790 -137.509931 -0.000003 -0.000002 -20.456398 170.272723 179.004887 -113.111819 -0.000004 -0.000007 -16.635300 60.907242 -5.553827 25.688738 -1.914801 0.018106 -2.699294 73.951510 206.311082 95.015663 -0.000001 -0.000004 -20.148905 -3.776559 -188.185304 68.519700 -0.000004 0.000000 -16.838301 325.157958 10.746028 -17.182471
-7.517497 14.982908 25.038502 2102.754496 -8.738706 6.611186 -0.673002 0.623898 5.369211 15.946239 17.588198 1.258781 0.000003 -0.000002 4.415010 -3.821638 -3.609756 -0.486817 0.000002 0.000005 10.273310 56.009996 17.476992 -13.218471 -0.000002 -0.000002 2.173903 2.124028 0.183108 5.484094 2.359899 -0.565202 5.928101 9.690201 -2.959976 7.955563 5.443701 -0.000004 0.000003 5.051923 2.108908 -51.325938 0.000001 -0.000002 -10.615796 984.409702 -180.740124 178.308850 0.000001 -0.000005 -13.110297 -1452.093081 -2.829474 35.552736 -2.636605 -1.718800 6.889710 185.298579 -180.811145 188.530023 -4.139094 -0.000003 0.000005 389.882743 -377.845491 451.084708 -0.000002 0.000005 -10.471807 -124.291766 -44.525860 -518.904115 0.000006 -0.000003 -12.281896 343.933602 -15.001553 -5.467840 2.273398 0.176699 -2.517993 -306.391057 -212.482527 -137.481190 -0.000003 -0.000003 -20.456396 170.110929 179.352694 -113.246510 -0.000004 -0.000005 -16.635300 61.187731 -5.598970 25.975546 -1.914802 0.018101 -2.699294 73.890728 206.285496 94.965864 0.000006 -0.000004 -20.148903 -3.801858 -188.043509 68.527363 0.000002 -0.000004 -16.838303 325.016847 10.759121 -17.156805
-7.537601 14.977106 25.030302 2102.787062 -8.686445 6.585745 -0.673001 0.623898 5.369207 15.776796 17.565665 1.336857 0.000001 -0.000001 4.415000 -3.792021 -3.593050 -0.485236 0.000004 0.000000 10.273301 56.023551 17.393341 -13.260768 -0.000001 -0.000003 2.173900 2.058224 0.089680 5.574779 2.359897 -0.565204 5.928102 9.732477 -3.030793 7.798555 5.443697 -0.000004 0.000004 5.244061 1.911781 -51.347399 0.000002 -0.000001 -10.615797 984.488495 -180.861551 178.248649 0.000002 -0.000003 -13.110299 -1452.522345 -2.806937 35.371579 -2.636605 -1.718804 6.889705 185.352824 -180.836143 188.660658 -4.139093 -0.000003 0.000002 389.896404 -377.980319 451.216449 -0.000003 0.000009 -10.471800 -124.295509 -44.526314 -518.906902 0.000001 -0.000002 -12.281902 344.021930 -15.023180 -5.634811 2.273398 0.176697 -2.517999 -306.490723 -212.579488 -137.418980 -0.000003 -0.000004 -20.456398 169.658129 180.622454 -113.526630 -0.000003 -0.000005 -16.635300 62.134245 -5.608410 26.523344 -1.914800 0.018107 -2.699298 73.866843 206.438137 94.928312 0.000001 -0.000004 -20.148907 -3.943131 -188.085323 68.518552 -0.000002 -0.000002 -16.838299 325.013568 10.790312 -17.109726
-7.562099 14.971708 25.022198 2102.849791 -8.625426 6.546666 -0.673000 0.623898 5.369211 15.598024 17.540219 1.433277 0.000001 -0.000002 4.415001 -3.760681 -3.578608 -0.482911 0.000002 0.000000 10.273302 56.051664 17.305942 -13.324838 -0.000002 0.000002 2.173897 2.028765 0.042892 5.626501 2.359900 -0.565206 5.928098 9.733384 -3.045297 7.698517 5.443701 -0.000004 -0.000000 5.395952 1.684332 -51.451818 0.000004 -0.000001 -10.615793 984.699084 -181.003988 178.183270 0.000003 -0.000005 -13.110300 -1453.000458 -2.789035 35.160974 -2.636603 -1.718806 6.889705 185.267925 -180.828056 189.021005 -4.139104 0.000000 0.000005 390.059290 -379.277290 451.189292 0.000007 0.000009 -10.471807 -123.115608 -44.540890 -518.804558 0.000005 -0.000005 -12.281900 344.181210 -15.030161 -5.717580 2.273403 0.176702 -2.518000 -306.534628 -212.567098 -137.411617 -0.000002 -0.000003 -20.456396 169.556851 180.788906 -113.670884 -0.000004 -0.000004 -16.635300 62.269332 -5.645929 26.710894 -1.914796 0.018109 -2.699296 73.768297 206.505893 94.864012 0.000002 -0.000004 -20.148903 -3.998729 -188.095323 68.515834 -0.000002 -0.000004 -16.838299 325.012065 10.830972 -17.091295
-7.592598 14.967707 25.016804 2102.891100 -8.559721 6.478465 -0.673000 0.623897 5.369213 15.598098 17.530375 1.501910 -0.000000 -0.000001 4.415004 -3.798854 -3.586339 -0.483225 0.000004 0.000005 10.273300 56.030279 17.239187 -13.378270 -0.000001 -0.000003 2.173898 2.014440 0.009430 5.615722 2.359901 -0.565204 5.928095 9.658577 -2.964961 7.683059 5.443699 -0.000001 -0.000003 5.483547 1.375660 -51.659115 0.000003 -0.000001 -10.615791 985.064963 -181.186832 178.107879 0.000001 -0.000004 -13.110295 -1453.522831 -2.775740 34.919649 -2.636599 -1.718804 6.889703 185.158437 -180.673503 188.839212 -4.139102 -0.000000 0.000003 390.231957 -379.116016 451.568285 -0.000003 0.000011 -10.471804 -122.945181 -44.500964 -518.757731 0.000005 -0.000006 -12.281898 344.393711 -15.031735 -5.742272 2.273402 0.176701 -2.517999 -306.539190 -212.528631 -137.423830 -0.000003 -0.000003 -20.456398 169.511457 180.817060 -113.816503 -0.000000 -0.000005 -16.635302 62.295410 -5.684083 26.833464 -1.914800 0.018107 -2.699299 73.696450 206.598961 94.786223 0.000000 -0.000004 -20.148903 -4.042033 -188.169075 68.505110 -0.000002 -0.000003 -16.838299 325.068729 10.875417 -17.081340
